<svg width="1938" height="205" viewBox="0 0 1938 205" fill="none" xmlns="http://www.w3.org/2000/svg">
<path d="M50.0586 9.03516L50.6445 5.95898C67.5391 4.10352 77.7441 3.17578 81.2598 3.17578C82.334 3.17578 83.8965 3.22461 85.9473 3.32227L85.2148 6.10547L81.2598 15.9199L72.6172 40.3828C71.25 44.0937 69.3457 49.8555 66.9043 57.668C62.4121 72.1211 57.6758 85.1582 52.6953 96.7793C47.8125 108.303 43.2227 120.852 38.9258 134.426C40.4883 132.473 42.4902 129.738 44.9316 126.223C58.7988 106.496 70.4199 93.0195 79.7949 85.793C86.1426 80.9102 92.3926 78.4688 98.5449 78.4688C103.525 78.4688 107.773 80.5684 111.289 84.7676C114.902 88.9668 116.709 95.4121 116.709 104.104C116.709 115.236 113.926 128.42 108.359 143.654C102.793 158.791 96.2012 171.096 88.584 180.568C80.9668 190.041 74.4238 196.145 68.9551 198.879C63.584 201.613 58.7012 202.98 54.3066 202.98C50.498 202.98 47.6172 201.955 45.6641 199.904C42.7344 196.877 41.2695 193.752 41.2695 190.529C41.2695 189.064 42.0508 187.697 43.6133 186.428C45.1758 185.061 47.2266 184.377 49.7656 184.377C51.7188 184.377 53.2812 184.816 54.4531 185.695C55.625 186.477 57.4316 188.674 59.873 192.287C61.5332 193.85 62.9004 194.631 63.9746 194.631C65.8301 194.631 68.3691 192.531 71.5918 188.332C77.9395 179.934 85.0684 163.967 92.9785 140.432C99.3262 121.779 102.5 107.668 102.5 98.0977C102.5 92.8242 101.768 89.2598 100.303 87.4043C98.8379 85.5488 96.8359 84.6211 94.2969 84.6211C92.9297 84.6211 91.3672 85.0605 89.6094 85.9395C84.3359 88.5762 78.623 93.1172 72.4707 99.5625C66.3184 106.008 56.6016 118.459 43.3203 136.916C40.3906 141.018 35.5078 150.344 28.6719 164.895C21.9336 179.445 17.3438 189.699 14.9023 195.656C13.6328 198.781 12.4121 200.783 11.2402 201.662C10.0684 202.541 8.50586 202.98 6.55273 202.98C4.4043 202.98 2.8418 202.59 1.86523 201.809C0.986328 201.027 0.546875 199.904 0.546875 198.439C0.546875 196.779 1.32812 194.094 2.89062 190.383L13.4375 164.162C14.0234 162.893 14.5605 161.623 15.0488 160.354L56.5039 41.9941L62.5098 25.002C64.0723 20.7051 64.8535 17.7754 64.8535 16.2129C64.8535 15.041 64.5605 14.1621 63.9746 13.5762C63.3887 12.8926 62.2656 12.4043 60.6055 12.1113C56.6992 11.3301 53.1836 10.3047 50.0586 9.03516ZM177.354 24.709C177.354 21.291 178.672 18.2637 181.309 15.627C183.945 12.8926 187.021 11.5254 190.537 11.5254C193.857 11.5254 196.689 12.6973 199.033 15.041C201.377 17.3848 202.549 20.0703 202.549 23.0977C202.549 27.0039 201.084 30.5684 198.154 33.791C196.396 35.6465 193.174 36.5742 188.486 36.5742C185.361 36.5742 182.725 35.5 180.576 33.3516C178.428 31.2031 177.354 28.3223 177.354 24.709ZM171.641 90.4805C169.59 90.4805 168.076 90.627 167.1 90.9199C162.51 93.3613 159.141 95.4609 156.992 97.2188C152.598 100.637 148.447 104.641 144.541 109.23L136.045 111.135C143.564 100.979 151.914 93.0195 161.094 87.2578C170.273 81.4961 177.5 78.6152 182.773 78.6152C185.02 78.6152 186.68 79.2012 187.754 80.373C188.926 81.4473 189.512 82.8633 189.512 84.6211C189.512 89.4062 186.777 97.3652 181.309 108.498C180.625 109.865 179.014 113.381 176.475 119.045C170.615 131.838 164.365 143.947 157.725 155.373C155.576 159.084 153.232 163.479 150.693 168.557C149.326 171.291 148.105 173.586 147.031 175.441C144.004 180.52 142.49 184.279 142.49 186.721C142.49 187.404 142.734 188.039 143.223 188.625C143.809 189.113 144.492 189.357 145.273 189.357C146.348 189.357 147.91 188.771 149.961 187.6C153.379 185.646 157.432 182.424 162.119 177.932C166.904 173.342 171.104 168.117 174.717 162.258H180.723C177.891 167.531 173.691 173.586 168.125 180.422C162.656 187.258 156.406 192.727 149.375 196.828C144.102 199.953 139.414 201.516 135.312 201.516C132.188 201.516 129.893 200.832 128.428 199.465C126.963 198.195 126.23 196.486 126.23 194.338C126.23 186.818 131.748 172.658 142.783 151.857L166.367 107.326C168.809 102.736 170.518 99.123 171.494 96.4863C172.08 94.8262 172.373 93.7031 172.373 93.1172C172.373 92.6289 172.129 91.75 171.641 90.4805ZM200.791 172.951C205.674 172.951 209.678 176.711 212.803 184.23C214.365 187.941 215.879 190.383 217.344 191.555C218.711 192.824 220.518 193.459 222.764 193.459C226.963 193.459 230.967 191.506 234.775 187.6C237.705 184.67 239.17 180.178 239.17 174.123C239.17 169.436 237.51 162.404 234.189 153.029C229.502 139.455 227.158 128.811 227.158 121.096C227.158 109.865 230.186 99.9043 236.24 91.2129C242.295 82.5215 251.865 78.1758 264.951 78.1758C270.518 78.1758 274.961 79.6895 278.281 82.7168C281.602 85.7441 283.262 89.4062 283.262 93.7031C283.262 96.6328 282.432 99.0254 280.771 100.881C279.209 102.639 277.402 103.518 275.352 103.518C271.055 103.518 267.197 101.467 263.779 97.3652C260.361 93.166 258.066 90.7246 256.895 90.041C255.723 89.4551 253.916 89.1621 251.475 89.1621C248.74 89.1621 246.299 90.334 244.15 92.6777C242.1 95.0215 241.074 97.8535 241.074 101.174C241.074 109.084 243.418 120.119 248.105 134.279C252.793 148.342 255.137 159.279 255.137 167.092C255.137 172.072 253.574 177.15 250.449 182.326C247.422 187.404 242.637 191.75 236.094 195.363C229.648 198.879 223.008 200.637 216.172 200.637C207.969 200.637 201.816 198.879 197.715 195.363C193.711 191.848 191.709 187.648 191.709 182.766C191.709 179.836 192.539 177.492 194.199 175.734C195.859 173.879 198.057 172.951 200.791 172.951ZM325.596 91.5059H317.1L312.998 91.3594L303.477 91.6523H301.572C301.768 89.5039 302.598 87.0137 304.062 84.1816C318.125 83.791 326.475 83.4492 329.111 83.1562C331.064 78.4688 332.725 74.709 334.092 71.877C337.021 65.5293 340.049 58.0098 343.174 49.3184C344.15 46.4863 345.225 43.8984 346.396 41.5547C348.545 41.2617 351.035 41.1152 353.867 41.1152C356.211 41.1152 358.457 41.3594 360.605 41.8477L360.898 44.1914C360.898 46.0469 356.504 56.7891 347.715 76.418C346.738 78.6641 345.908 80.959 345.225 83.3027C348.057 83.791 349.717 84.0352 350.205 84.0352H353.281L358.262 84.1816L372.324 83.8887C372.324 87.1113 371.738 89.748 370.566 91.7988C366.66 92.1895 361.533 92.3848 355.186 92.3848C352.061 92.3848 350.059 92.4336 349.18 92.5312C344.199 93.0195 341.318 93.5078 340.537 93.9961L316.221 150.832C313.682 156.398 309.189 166.994 302.744 182.619C302.744 183.205 303.037 183.889 303.623 184.67L305.527 184.963C308.164 184.963 311.436 183.303 315.342 179.982C324.033 172.658 332.236 164.113 339.951 154.348C341.611 155.227 343.076 156.252 344.346 157.424C334.482 169.24 327.549 177.053 323.545 180.861C319.541 184.572 314.463 188.479 308.311 192.58C302.158 196.584 298.447 198.83 297.178 199.318C294.932 200.197 292.637 200.637 290.293 200.637C287.852 200.637 286.045 200.1 284.873 199.025C283.701 198.049 283.115 196.584 283.115 194.631C283.115 191.799 285.508 185.207 290.293 174.855L296.592 161.232L318.711 109.23C321.543 102.492 323.838 96.584 325.596 91.5059ZM453.037 114.797C453.037 137.453 446.152 157.57 432.383 175.148C418.711 192.727 404.502 201.516 389.756 201.516C381.846 201.516 375.449 198.586 370.566 192.727C365.684 186.77 363.242 177.492 363.242 164.895C363.242 156.398 365.146 146.633 368.955 135.598C372.764 124.465 377.695 115.236 383.75 107.912C385.117 106.252 386.68 104.25 388.438 101.906C393.613 95.168 399.766 89.5039 406.895 84.9141C414.023 80.3242 421.299 78.0293 428.721 78.0293C435.557 78.0293 441.318 80.9102 446.006 86.6719C450.693 92.3359 453.037 101.711 453.037 114.797ZM376.865 181.447C376.865 185.939 377.891 189.26 379.941 191.408C382.09 193.557 385.508 194.631 390.195 194.631C394.785 194.631 399.424 192.385 404.111 187.893C412.51 179.689 420.908 165.578 429.307 145.559C437.705 125.539 441.904 109.768 441.904 98.2441C441.904 94.1426 440.879 90.9199 438.828 88.5762C436.777 86.1348 434.434 84.9141 431.797 84.9141C426.035 84.9141 420.029 88.2832 413.779 95.0215C403.135 106.35 393.955 121.975 386.24 141.896C379.99 158.107 376.865 171.291 376.865 181.447ZM500.938 90.334C497.715 92.6777 494.688 95.4121 491.855 98.5371C491.074 99.416 486.631 105.275 478.525 116.115L472.52 116.408C474.961 111.135 479.502 104.641 486.143 96.9258C492.783 89.2109 498.545 83.9375 503.428 81.1055C506.553 79.25 510.068 78.1758 513.975 77.8828C516.416 78.5664 518.076 79.4941 518.955 80.666C519.932 81.8379 520.42 83.2539 520.42 84.9141C520.42 86.5742 520.225 88.2344 519.834 89.8945C518.76 95.2656 516.611 102.932 513.389 112.893C510.166 122.854 507.285 130.715 504.746 136.477L497.129 154.494L496.543 157.131C497.91 154.787 500.693 149.562 504.893 141.457C520.811 111.281 532.285 92.6289 539.316 85.5C544.492 80.4219 550.547 77.8828 557.48 77.8828C561.387 77.8828 565.049 79.4453 568.467 82.5703C571.006 85.0117 572.275 88.2344 572.275 92.2383C572.275 96.7305 570.859 100.588 568.027 103.811C566.074 106.057 563.291 107.18 559.678 107.18C556.65 107.18 554.502 106.496 553.232 105.129C552.061 103.664 551.328 100.1 551.035 94.4355C549.766 91.8965 548.35 90.627 546.787 90.627C545.225 90.627 543.564 91.457 541.807 93.1172C537.119 97.3164 528.281 110.793 515.293 133.547C502.305 156.203 494.15 171.975 490.83 180.861C487.607 189.65 484.971 195.705 482.92 199.025C481.846 200.686 479.844 201.516 476.914 201.516C474.277 201.516 472.373 201.027 471.201 200.051C470.127 199.172 469.59 198 469.59 196.535C469.59 194.582 470.078 192.336 471.055 189.797C475.254 179.543 481.992 160.646 491.27 133.107L501.523 101.76C502.207 98.9277 502.695 97.1211 502.988 96.3398L503.867 94.1426C503.867 93.166 502.891 91.8965 500.938 90.334ZM605.967 24.709C605.967 21.291 607.285 18.2637 609.922 15.627C612.559 12.8926 615.635 11.5254 619.15 11.5254C622.471 11.5254 625.303 12.6973 627.646 15.041C629.99 17.3848 631.162 20.0703 631.162 23.0977C631.162 27.0039 629.697 30.5684 626.768 33.791C625.01 35.6465 621.787 36.5742 617.1 36.5742C613.975 36.5742 611.338 35.5 609.189 33.3516C607.041 31.2031 605.967 28.3223 605.967 24.709ZM600.254 90.4805C598.203 90.4805 596.689 90.627 595.713 90.9199C591.123 93.3613 587.754 95.4609 585.605 97.2188C581.211 100.637 577.061 104.641 573.154 109.23L564.658 111.135C572.178 100.979 580.527 93.0195 589.707 87.2578C598.887 81.4961 606.113 78.6152 611.387 78.6152C613.633 78.6152 615.293 79.2012 616.367 80.373C617.539 81.4473 618.125 82.8633 618.125 84.6211C618.125 89.4062 615.391 97.3652 609.922 108.498C609.238 109.865 607.627 113.381 605.088 119.045C599.229 131.838 592.979 143.947 586.338 155.373C584.189 159.084 581.846 163.479 579.307 168.557C577.939 171.291 576.719 173.586 575.645 175.441C572.617 180.52 571.104 184.279 571.104 186.721C571.104 187.404 571.348 188.039 571.836 188.625C572.422 189.113 573.105 189.357 573.887 189.357C574.961 189.357 576.523 188.771 578.574 187.6C581.992 185.646 586.045 182.424 590.732 177.932C595.518 173.342 599.717 168.117 603.33 162.258H609.336C606.504 167.531 602.305 173.586 596.738 180.422C591.27 187.258 585.02 192.727 577.988 196.828C572.715 199.953 568.027 201.516 563.926 201.516C560.801 201.516 558.506 200.832 557.041 199.465C555.576 198.195 554.844 196.486 554.844 194.338C554.844 186.818 560.361 172.658 571.396 151.857L594.98 107.326C597.422 102.736 599.131 99.123 600.107 96.4863C600.693 94.8262 600.986 93.7031 600.986 93.1172C600.986 92.6289 600.742 91.75 600.254 90.4805ZM700.596 104.104C699.131 102.932 698.008 101.857 697.227 100.881C696.738 100.197 695.811 98.3418 694.443 95.3145C693.076 92.1895 692.051 90.2852 691.367 89.6016C690.195 88.5273 688.975 87.9902 687.705 87.9902C684.287 87.9902 680.625 90.0898 676.719 94.2891C669.492 102.004 662.168 114.748 654.746 132.521C647.422 150.295 643.76 165.041 643.76 176.76C643.76 181.154 644.395 184.23 645.664 185.988C646.641 187.258 648.057 187.893 649.912 187.893C653.721 187.893 657.92 185.842 662.51 181.74C668.662 176.271 674.912 168.654 681.26 158.889C683.115 158.498 684.531 158.303 685.508 158.303L687.705 158.449C687.314 160.207 684.58 164.846 679.502 172.365C672.178 183.107 665.439 190.627 659.287 194.924C653.135 199.123 647.471 201.223 642.295 201.223C637.803 201.223 634.336 199.611 631.895 196.389C628.672 192.189 627.061 185.549 627.061 176.467C627.061 168.654 628.916 159.133 632.627 147.902C636.436 136.672 642.002 125.832 649.326 115.383C656.65 104.934 662.607 97.4629 667.197 92.9707C671.885 88.3809 677.598 84.4746 684.336 81.252C688.926 79.0059 693.223 77.8828 697.227 77.8828C701.328 77.8828 704.941 79.6895 708.066 83.3027C711.289 86.8184 712.9 90.9688 712.9 95.7539C712.9 98.6836 712.119 100.979 710.557 102.639C709.092 104.201 707.334 104.982 705.283 104.982C704.014 104.982 702.451 104.689 700.596 104.104ZM877.988 93.9961L893.809 43.459C894.492 41.3105 895.469 37.7949 896.738 32.9121C896.934 31.9355 897.129 31.1543 897.324 30.5684C899.375 24.123 900.4 20.0215 900.4 18.2637C900.4 16.9941 899.766 15.8223 898.496 14.748C895.859 12.6973 891.416 10.9395 885.166 9.47461L882.09 8.5957L883.262 4.49414C899.863 4.49414 910.898 3.37109 916.367 1.125L918.125 0.978516C919.297 0.978516 920.566 1.17383 921.934 1.56445C921.25 4.49414 920.762 6.49609 920.469 7.57031L920.322 8.44922L908.164 44.7773L893.516 91.6523C890.879 99.6602 889.121 105.568 888.242 109.377C886.973 115.041 885.508 120.314 883.848 125.197L863.047 187.453L863.486 188.332C867.002 187.746 875.986 179.494 890.439 163.576C892.002 164.26 893.174 165.139 893.955 166.213C885.85 178.42 876.768 188.283 866.709 195.803C859.482 201.174 854.062 203.859 850.449 203.859C849.668 203.859 848.594 203.664 847.227 203.273C846.641 202.395 846.348 201.613 846.348 200.93C846.348 198 848.008 191.213 851.328 180.568C854.648 169.924 856.943 162.209 858.213 157.424C855.576 159.865 851.719 163.918 846.641 169.582C836.973 180.422 826.768 189.357 816.025 196.389C808.311 201.467 801.328 204.006 795.078 204.006C791.66 204.006 788.975 202.639 787.021 199.904C783.896 195.705 782.334 189.797 782.334 182.18C782.334 172.707 784.482 162.941 788.779 152.883C791.318 146.73 795.518 138.82 801.377 129.152C807.334 119.484 813.926 111.086 821.152 103.957C828.477 96.7305 835.41 91.5547 841.953 88.4297C848.594 85.207 854.6 83.5957 859.971 83.5957C864.17 83.5957 867.881 84.5723 871.104 86.5254C873.252 87.7949 875.547 90.2852 877.988 93.9961ZM811.045 188.918C814.951 188.918 819.492 187.111 824.668 183.498C834.141 176.857 843.027 168.068 851.328 157.131C859.727 146.096 865.586 135.109 868.906 124.172C872.324 113.234 874.033 106.74 874.033 104.689C874.033 101.564 872.812 98.5859 870.371 95.7539C867.93 92.9219 865.684 91.5059 863.633 91.5059C860.02 91.5059 855.625 92.7754 850.449 95.3145C845.371 97.8535 840 102.199 834.336 108.352C831.113 111.77 826.182 118.898 819.541 129.738C812.9 140.578 807.969 149.904 804.746 157.717C801.523 165.529 799.912 171.535 799.912 175.734C799.912 179.836 800.938 183.059 802.988 185.402C805.137 187.746 807.822 188.918 811.045 188.918ZM926.328 145.119C923.105 154.006 921.494 162.99 921.494 172.072C921.494 178.713 923.057 184.035 926.182 188.039C928.232 190.773 931.016 192.141 934.531 192.141C936.68 192.141 938.584 191.701 940.244 190.822C943.857 188.967 946.934 186.77 949.473 184.23C952.109 181.691 954.844 178.371 957.676 174.27C960.508 170.168 962.803 165.578 964.561 160.5H966.611C967.783 160.5 969.102 160.598 970.566 160.793C967.637 171.73 960.41 182.473 948.887 193.02C941.66 199.562 934.189 202.834 926.475 202.834C921.299 202.834 916.904 200.49 913.291 195.803C908.506 189.65 906.113 181.154 906.113 170.314C906.113 165.627 906.797 160.012 908.164 153.469C909.629 146.926 911.289 141.457 913.145 137.062C916.074 130.227 919.346 123.781 922.959 117.727L934.238 101.32C941.562 93.5078 945.664 89.2109 946.543 88.4297C949.961 85.5 953.379 83.3027 956.797 81.8379C960.312 80.2754 963.926 79.4941 967.637 79.4941C972.422 79.4941 976.621 81.4961 980.234 85.5C983.848 89.5039 985.654 94.5332 985.654 100.588C985.654 105.959 984.238 111.281 981.406 116.555C978.672 121.73 975.693 125.539 972.471 127.98L960.312 135.891C958.945 136.574 955.283 137.844 949.326 139.699C943.369 141.457 935.703 143.264 926.328 145.119ZM928.818 137.795C931.943 137.893 936.826 136.672 943.467 134.133C947.08 132.766 951.865 130.08 957.822 126.076C960.166 124.514 962.852 121.877 965.879 118.166C968.906 114.357 971.201 110.451 972.764 106.447C974.326 102.346 975.107 98.1465 975.107 93.8496C975.107 91.0176 974.277 88.6738 972.617 86.8184C970.957 84.9629 969.102 84.0352 967.051 84.0352C964.414 84.0352 961.289 85.5488 957.676 88.5762C951.621 93.8496 945.273 102.688 938.633 115.09C933.652 124.562 930.381 132.131 928.818 137.795ZM995.322 172.951C1000.21 172.951 1004.21 176.711 1007.33 184.23C1008.9 187.941 1010.41 190.383 1011.88 191.555C1013.24 192.824 1015.05 193.459 1017.29 193.459C1021.49 193.459 1025.5 191.506 1029.31 187.6C1032.24 184.67 1033.7 180.178 1033.7 174.123C1033.7 169.436 1032.04 162.404 1028.72 153.029C1024.03 139.455 1021.69 128.811 1021.69 121.096C1021.69 109.865 1024.72 99.9043 1030.77 91.2129C1036.83 82.5215 1046.4 78.1758 1059.48 78.1758C1065.05 78.1758 1069.49 79.6895 1072.81 82.7168C1076.13 85.7441 1077.79 89.4062 1077.79 93.7031C1077.79 96.6328 1076.96 99.0254 1075.3 100.881C1073.74 102.639 1071.93 103.518 1069.88 103.518C1065.59 103.518 1061.73 101.467 1058.31 97.3652C1054.89 93.166 1052.6 90.7246 1051.43 90.041C1050.25 89.4551 1048.45 89.1621 1046.01 89.1621C1043.27 89.1621 1040.83 90.334 1038.68 92.6777C1036.63 95.0215 1035.61 97.8535 1035.61 101.174C1035.61 109.084 1037.95 120.119 1042.64 134.279C1047.32 148.342 1049.67 159.279 1049.67 167.092C1049.67 172.072 1048.11 177.15 1044.98 182.326C1041.95 187.404 1037.17 191.75 1030.62 195.363C1024.18 198.879 1017.54 200.637 1010.7 200.637C1002.5 200.637 996.348 198.879 992.246 195.363C988.242 191.848 986.24 187.648 986.24 182.766C986.24 179.836 987.07 177.492 988.73 175.734C990.391 173.879 992.588 172.951 995.322 172.951ZM1120.13 91.5059H1111.63L1107.53 91.3594L1098.01 91.6523H1096.1C1096.3 89.5039 1097.13 87.0137 1098.59 84.1816C1112.66 83.791 1121.01 83.4492 1123.64 83.1562C1125.6 78.4688 1127.26 74.709 1128.62 71.877C1131.55 65.5293 1134.58 58.0098 1137.71 49.3184C1138.68 46.4863 1139.76 43.8984 1140.93 41.5547C1143.08 41.2617 1145.57 41.1152 1148.4 41.1152C1150.74 41.1152 1152.99 41.3594 1155.14 41.8477L1155.43 44.1914C1155.43 46.0469 1151.04 56.7891 1142.25 76.418C1141.27 78.6641 1140.44 80.959 1139.76 83.3027C1142.59 83.791 1144.25 84.0352 1144.74 84.0352H1147.81L1152.79 84.1816L1166.86 83.8887C1166.86 87.1113 1166.27 89.748 1165.1 91.7988C1161.19 92.1895 1156.06 92.3848 1149.72 92.3848C1146.59 92.3848 1144.59 92.4336 1143.71 92.5312C1138.73 93.0195 1135.85 93.5078 1135.07 93.9961L1110.75 150.832C1108.21 156.398 1103.72 166.994 1097.28 182.619C1097.28 183.205 1097.57 183.889 1098.15 184.67L1100.06 184.963C1102.7 184.963 1105.97 183.303 1109.87 179.982C1118.56 172.658 1126.77 164.113 1134.48 154.348C1136.14 155.227 1137.61 156.252 1138.88 157.424C1129.01 169.24 1122.08 177.053 1118.08 180.861C1114.07 184.572 1108.99 188.479 1102.84 192.58C1096.69 196.584 1092.98 198.83 1091.71 199.318C1089.46 200.197 1087.17 200.637 1084.82 200.637C1082.38 200.637 1080.58 200.1 1079.4 199.025C1078.23 198.049 1077.65 196.584 1077.65 194.631C1077.65 191.799 1080.04 185.207 1084.82 174.855L1091.12 161.232L1113.24 109.23C1116.07 102.492 1118.37 96.584 1120.13 91.5059ZM1203.33 24.709C1203.33 21.291 1204.65 18.2637 1207.29 15.627C1209.92 12.8926 1213 11.5254 1216.51 11.5254C1219.83 11.5254 1222.67 12.6973 1225.01 15.041C1227.35 17.3848 1228.53 20.0703 1228.53 23.0977C1228.53 27.0039 1227.06 30.5684 1224.13 33.791C1222.37 35.6465 1219.15 36.5742 1214.46 36.5742C1211.34 36.5742 1208.7 35.5 1206.55 33.3516C1204.4 31.2031 1203.33 28.3223 1203.33 24.709ZM1197.62 90.4805C1195.57 90.4805 1194.05 90.627 1193.08 90.9199C1188.49 93.3613 1185.12 95.4609 1182.97 97.2188C1178.57 100.637 1174.42 104.641 1170.52 109.23L1162.02 111.135C1169.54 100.979 1177.89 93.0195 1187.07 87.2578C1196.25 81.4961 1203.48 78.6152 1208.75 78.6152C1211 78.6152 1212.66 79.2012 1213.73 80.373C1214.9 81.4473 1215.49 82.8633 1215.49 84.6211C1215.49 89.4062 1212.75 97.3652 1207.29 108.498C1206.6 109.865 1204.99 113.381 1202.45 119.045C1196.59 131.838 1190.34 143.947 1183.7 155.373C1181.55 159.084 1179.21 163.479 1176.67 168.557C1175.3 171.291 1174.08 173.586 1173.01 175.441C1169.98 180.52 1168.47 184.279 1168.47 186.721C1168.47 187.404 1168.71 188.039 1169.2 188.625C1169.79 189.113 1170.47 189.357 1171.25 189.357C1172.32 189.357 1173.89 188.771 1175.94 187.6C1179.36 185.646 1183.41 182.424 1188.1 177.932C1192.88 173.342 1197.08 168.117 1200.69 162.258H1206.7C1203.87 167.531 1199.67 173.586 1194.1 180.422C1188.63 187.258 1182.38 192.727 1175.35 196.828C1170.08 199.953 1165.39 201.516 1161.29 201.516C1158.16 201.516 1155.87 200.832 1154.4 199.465C1152.94 198.195 1152.21 196.486 1152.21 194.338C1152.21 186.818 1157.72 172.658 1168.76 151.857L1192.34 107.326C1194.79 102.736 1196.49 99.123 1197.47 96.4863C1198.06 94.8262 1198.35 93.7031 1198.35 93.1172C1198.35 92.6289 1198.11 91.75 1197.62 90.4805ZM1262.95 96.4863C1262.75 95.7051 1262.46 95.168 1262.07 94.875C1261.78 94.582 1261.39 94.4355 1260.9 94.4355C1255.82 94.4355 1247.91 102.443 1237.17 118.459C1236.09 118.557 1235.31 118.605 1234.82 118.605C1234.24 118.605 1233.26 118.557 1231.89 118.459C1233.95 114.357 1237.27 109.182 1241.86 102.932C1246.54 96.6816 1251.47 91.5059 1256.65 87.4043C1261.92 83.2051 1266.9 80.0801 1271.59 78.0293C1273.15 77.3457 1274.57 77.0039 1275.84 77.0039C1276.33 77.0039 1277.06 77.0527 1278.04 77.1504C1279.79 78.9082 1280.67 80.7148 1280.67 82.5703C1280.67 83.7422 1280.53 84.9141 1280.23 86.0859C1280.04 87.2578 1279.55 89.0645 1278.77 91.5059C1275.84 99.9043 1273.69 105.812 1272.32 109.23L1263.97 130.91C1262.02 135.891 1260.12 141.164 1258.26 146.73C1259.04 145.754 1259.73 144.826 1260.31 143.947C1269.39 130.666 1279.16 117.971 1289.61 105.861C1300.16 93.6543 1308.85 85.5 1315.68 81.3984C1320.57 78.3711 1325.21 76.8574 1329.6 76.8574C1332.92 76.8574 1335.51 77.7852 1337.36 79.6406C1339.22 81.3984 1340.15 83.6934 1340.15 86.5254C1340.15 88.2832 1339.95 89.9922 1339.56 91.6523C1338.88 95.3633 1337.36 100.539 1335.02 107.18C1332.68 113.82 1326.52 128.225 1316.56 150.393L1301.91 184.23L1301.33 186.135C1301.33 186.721 1301.67 187.6 1302.35 188.771C1307.82 187.6 1316.03 178.908 1326.96 162.697L1332.97 162.844C1329.94 168.312 1324.96 175.344 1318.03 183.938C1312.66 190.48 1306.89 195.559 1300.74 199.172C1297.32 201.223 1293.66 202.248 1289.76 202.248C1287.41 202.248 1285.65 201.76 1284.48 200.783C1283.31 199.807 1282.72 198.732 1282.72 197.561C1282.72 192.385 1285.21 184.377 1290.2 173.537L1311.44 127.102L1319.64 107.619C1321.49 103.322 1322.62 100.344 1323.01 98.6836C1323.4 97.0234 1323.59 95.3633 1323.59 93.7031C1323.59 92.4336 1323.25 91.457 1322.57 90.7734C1321.88 89.9922 1321.01 89.6016 1319.93 89.6016C1318.37 89.6016 1316.56 90.2363 1314.51 91.5059C1307.29 95.8027 1299.33 103.176 1290.63 113.625C1278.13 128.664 1269.83 139.455 1265.73 145.998C1255.48 162.209 1246.54 178.762 1238.93 195.656C1237.75 198.391 1236.34 200.393 1234.68 201.662C1232.63 201.955 1231.06 202.102 1229.99 202.102C1228.72 202.102 1226.77 201.857 1224.13 201.369C1223.74 200.588 1223.54 199.953 1223.54 199.465C1223.54 198.684 1224.03 196.926 1225.01 194.191C1227.16 187.844 1232.43 174.465 1240.83 154.055L1244.2 146.145L1262.95 96.4863ZM1449.42 91.9453C1450.4 90.2852 1451.04 88.9668 1451.33 87.9902C1452.5 85.0605 1453.67 83.1562 1454.84 82.2773C1457.58 81.9844 1459.58 81.8379 1460.85 81.8379C1462.51 81.8379 1464.12 82.1797 1465.68 82.8633L1466.12 84.6211C1466.12 85.207 1465.88 86.0859 1465.39 87.2578C1465.1 87.8438 1464.46 89.6992 1463.49 92.8242L1462.31 95.7539L1452.65 121.975C1448.54 133.791 1444.93 143.215 1441.81 150.246C1438.78 157.277 1436.14 164.455 1433.9 171.779C1431.65 179.006 1429.6 184.182 1427.74 187.307L1427.16 188.771C1427.16 189.357 1427.7 190.139 1428.77 191.115C1433.16 188.674 1436.88 186.037 1439.9 183.205C1447.71 175.881 1452.35 171.34 1453.82 169.582C1454.89 168.312 1455.92 167.141 1456.89 166.066C1458.07 167.043 1459.14 168.068 1460.12 169.143C1457.38 172.951 1452.79 178.127 1446.35 184.67C1439.9 191.213 1434.09 195.852 1428.92 198.586C1424.91 200.637 1421.15 201.662 1417.64 201.662C1415.39 201.662 1413.68 201.174 1412.51 200.197C1411.44 199.221 1410.9 197.951 1410.9 196.389C1410.9 195.021 1411.39 192.482 1412.36 188.771C1414.8 182.326 1416.51 178.078 1417.49 176.027C1418.47 173.977 1419.79 170.803 1421.45 166.506C1422.42 163.869 1424.42 159.279 1427.45 152.736C1425.6 154.592 1423.3 157.326 1420.57 160.939C1412.66 170.9 1403.57 180.324 1393.32 189.211C1390.98 191.262 1385.31 194.533 1376.33 199.025C1373.01 200.295 1369.1 201.125 1364.61 201.516C1360.8 201.418 1358.26 201.027 1356.99 200.344C1354.65 199.074 1352.74 197.072 1351.28 194.338C1350.21 192.287 1349.67 189.113 1349.67 184.816C1349.67 178.566 1351.04 171.633 1353.77 164.016C1358.46 151.027 1363.19 141.408 1367.98 135.158C1376.18 124.318 1384.29 115.725 1392.29 109.377C1400.4 103.029 1407.82 98.3906 1414.56 95.4609C1423.45 91.5547 1431.16 89.6016 1437.71 89.6016C1439.85 89.6016 1441.9 89.7969 1443.86 90.1875C1445.81 90.5781 1447.67 91.1641 1449.42 91.9453ZM1379.7 188.039C1382.04 187.453 1384.09 186.623 1385.85 185.549C1386.92 184.963 1390.73 182.277 1397.28 177.492C1409.19 165.48 1415.93 158.596 1417.49 156.838C1420.91 153.029 1424.77 147.805 1429.06 141.164C1430.23 139.504 1432.72 134.914 1436.53 127.395L1440.34 117.287C1441.71 111.33 1442.39 107.912 1442.39 107.033C1442.39 104.299 1441.27 101.711 1439.02 99.2695C1437.56 97.8047 1435.17 97.0723 1431.85 97.0723C1428.04 97.0723 1424.77 97.707 1422.03 98.9766C1415.88 101.906 1410.26 105.617 1405.19 110.109C1398.35 116.262 1391.76 124.172 1385.41 133.84C1379.06 143.41 1374.57 151.418 1371.93 157.863C1368.32 166.75 1366.51 173.391 1366.51 177.785C1366.51 181.398 1367.25 184.084 1368.71 185.842C1370.18 187.6 1372.03 188.479 1374.28 188.479C1375.06 188.479 1376.87 188.332 1379.7 188.039ZM1514.17 91.5059H1505.67L1501.57 91.3594L1492.05 91.6523H1490.15C1490.34 89.5039 1491.17 87.0137 1492.64 84.1816C1506.7 83.791 1515.05 83.4492 1517.69 83.1562C1519.64 78.4688 1521.3 74.709 1522.67 71.877C1525.6 65.5293 1528.62 58.0098 1531.75 49.3184C1532.72 46.4863 1533.8 43.8984 1534.97 41.5547C1537.12 41.2617 1539.61 41.1152 1542.44 41.1152C1544.79 41.1152 1547.03 41.3594 1549.18 41.8477L1549.47 44.1914C1549.47 46.0469 1545.08 56.7891 1536.29 76.418C1535.31 78.6641 1534.48 80.959 1533.8 83.3027C1536.63 83.791 1538.29 84.0352 1538.78 84.0352H1541.86L1546.84 84.1816L1560.9 83.8887C1560.9 87.1113 1560.31 89.748 1559.14 91.7988C1555.23 92.1895 1550.11 92.3848 1543.76 92.3848C1540.63 92.3848 1538.63 92.4336 1537.75 92.5312C1532.77 93.0195 1529.89 93.5078 1529.11 93.9961L1504.79 150.832C1502.26 156.398 1497.76 166.994 1491.32 182.619C1491.32 183.205 1491.61 183.889 1492.2 184.67L1494.1 184.963C1496.74 184.963 1500.01 183.303 1503.92 179.982C1512.61 172.658 1520.81 164.113 1528.53 154.348C1530.19 155.227 1531.65 156.252 1532.92 157.424C1523.06 169.24 1516.12 177.053 1512.12 180.861C1508.12 184.572 1503.04 188.479 1496.88 192.58C1490.73 196.584 1487.02 198.83 1485.75 199.318C1483.51 200.197 1481.21 200.637 1478.87 200.637C1476.43 200.637 1474.62 200.1 1473.45 199.025C1472.28 198.049 1471.69 196.584 1471.69 194.631C1471.69 191.799 1474.08 185.207 1478.87 174.855L1485.17 161.232L1507.29 109.23C1510.12 102.492 1512.41 96.584 1514.17 91.5059ZM1597.37 24.709C1597.37 21.291 1598.69 18.2637 1601.33 15.627C1603.96 12.8926 1607.04 11.5254 1610.56 11.5254C1613.88 11.5254 1616.71 12.6973 1619.05 15.041C1621.4 17.3848 1622.57 20.0703 1622.57 23.0977C1622.57 27.0039 1621.1 30.5684 1618.17 33.791C1616.42 35.6465 1613.19 36.5742 1608.51 36.5742C1605.38 36.5742 1602.74 35.5 1600.6 33.3516C1598.45 31.2031 1597.37 28.3223 1597.37 24.709ZM1591.66 90.4805C1589.61 90.4805 1588.1 90.627 1587.12 90.9199C1582.53 93.3613 1579.16 95.4609 1577.01 97.2188C1572.62 100.637 1568.47 104.641 1564.56 109.23L1556.06 111.135C1563.58 100.979 1571.93 93.0195 1581.11 87.2578C1590.29 81.4961 1597.52 78.6152 1602.79 78.6152C1605.04 78.6152 1606.7 79.2012 1607.77 80.373C1608.95 81.4473 1609.53 82.8633 1609.53 84.6211C1609.53 89.4062 1606.8 97.3652 1601.33 108.498C1600.64 109.865 1599.03 113.381 1596.49 119.045C1590.63 131.838 1584.38 143.947 1577.74 155.373C1575.6 159.084 1573.25 163.479 1570.71 168.557C1569.35 171.291 1568.12 173.586 1567.05 175.441C1564.02 180.52 1562.51 184.279 1562.51 186.721C1562.51 187.404 1562.75 188.039 1563.24 188.625C1563.83 189.113 1564.51 189.357 1565.29 189.357C1566.37 189.357 1567.93 188.771 1569.98 187.6C1573.4 185.646 1577.45 182.424 1582.14 177.932C1586.92 173.342 1591.12 168.117 1594.74 162.258H1600.74C1597.91 167.531 1593.71 173.586 1588.14 180.422C1582.68 187.258 1576.43 192.727 1569.39 196.828C1564.12 199.953 1559.43 201.516 1555.33 201.516C1552.21 201.516 1549.91 200.832 1548.45 199.465C1546.98 198.195 1546.25 196.486 1546.25 194.338C1546.25 186.818 1551.77 172.658 1562.8 151.857L1586.39 107.326C1588.83 102.736 1590.54 99.123 1591.51 96.4863C1592.1 94.8262 1592.39 93.7031 1592.39 93.1172C1592.39 92.6289 1592.15 91.75 1591.66 90.4805ZM1710.46 114.797C1710.46 137.453 1703.57 157.57 1689.8 175.148C1676.13 192.727 1661.92 201.516 1647.18 201.516C1639.27 201.516 1632.87 198.586 1627.99 192.727C1623.11 186.77 1620.66 177.492 1620.66 164.895C1620.66 156.398 1622.57 146.633 1626.38 135.598C1630.19 124.465 1635.12 115.236 1641.17 107.912C1642.54 106.252 1644.1 104.25 1645.86 101.906C1651.04 95.168 1657.19 89.5039 1664.32 84.9141C1671.45 80.3242 1678.72 78.0293 1686.14 78.0293C1692.98 78.0293 1698.74 80.9102 1703.43 86.6719C1708.12 92.3359 1710.46 101.711 1710.46 114.797ZM1634.29 181.447C1634.29 185.939 1635.31 189.26 1637.36 191.408C1639.51 193.557 1642.93 194.631 1647.62 194.631C1652.21 194.631 1656.85 192.385 1661.53 187.893C1669.93 179.689 1678.33 165.578 1686.73 145.559C1695.13 125.539 1699.33 109.768 1699.33 98.2441C1699.33 94.1426 1698.3 90.9199 1696.25 88.5762C1694.2 86.1348 1691.86 84.9141 1689.22 84.9141C1683.46 84.9141 1677.45 88.2832 1671.2 95.0215C1660.56 106.35 1651.38 121.975 1643.66 141.896C1637.41 158.107 1634.29 171.291 1634.29 181.447ZM1763.34 96.4863C1763.14 95.7051 1762.85 95.168 1762.46 94.875C1762.17 94.582 1761.78 94.4355 1761.29 94.4355C1756.21 94.4355 1748.3 102.443 1737.56 118.459C1736.48 118.557 1735.7 118.605 1735.21 118.605C1734.63 118.605 1733.65 118.557 1732.29 118.459C1734.34 114.357 1737.66 109.182 1742.25 102.932C1746.93 96.6816 1751.87 91.5059 1757.04 87.4043C1762.31 83.2051 1767.29 80.0801 1771.98 78.0293C1773.54 77.3457 1774.96 77.0039 1776.23 77.0039C1776.72 77.0039 1777.45 77.0527 1778.43 77.1504C1780.19 78.9082 1781.06 80.7148 1781.06 82.5703C1781.06 83.7422 1780.92 84.9141 1780.62 86.0859C1780.43 87.2578 1779.94 89.0645 1779.16 91.5059C1776.23 99.9043 1774.08 105.812 1772.71 109.23L1764.37 130.91C1762.41 135.891 1760.51 141.164 1758.65 146.73C1759.43 145.754 1760.12 144.826 1760.7 143.947C1769.79 130.666 1779.55 117.971 1790 105.861C1800.55 93.6543 1809.24 85.5 1816.07 81.3984C1820.96 78.3711 1825.6 76.8574 1829.99 76.8574C1833.31 76.8574 1835.9 77.7852 1837.75 79.6406C1839.61 81.3984 1840.54 83.6934 1840.54 86.5254C1840.54 88.2832 1840.34 89.9922 1839.95 91.6523C1839.27 95.3633 1837.75 100.539 1835.41 107.18C1833.07 113.82 1826.91 128.225 1816.95 150.393L1802.3 184.23L1801.72 186.135C1801.72 186.721 1802.06 187.6 1802.74 188.771C1808.21 187.6 1816.42 178.908 1827.35 162.697L1833.36 162.844C1830.33 168.312 1825.35 175.344 1818.42 183.938C1813.05 190.48 1807.29 195.559 1801.13 199.172C1797.71 201.223 1794.05 202.248 1790.15 202.248C1787.8 202.248 1786.04 201.76 1784.87 200.783C1783.7 199.807 1783.12 198.732 1783.12 197.561C1783.12 192.385 1785.61 184.377 1790.59 173.537L1811.83 127.102L1820.03 107.619C1821.88 103.322 1823.01 100.344 1823.4 98.6836C1823.79 97.0234 1823.98 95.3633 1823.98 93.7031C1823.98 92.4336 1823.64 91.457 1822.96 90.7734C1822.28 89.9922 1821.4 89.6016 1820.32 89.6016C1818.76 89.6016 1816.95 90.2363 1814.9 91.5059C1807.68 95.8027 1799.72 103.176 1791.03 113.625C1778.53 128.664 1770.22 139.455 1766.12 145.998C1755.87 162.209 1746.93 178.762 1739.32 195.656C1738.14 198.391 1736.73 200.393 1735.07 201.662C1733.02 201.955 1731.46 202.102 1730.38 202.102C1729.11 202.102 1727.16 201.857 1724.52 201.369C1724.13 200.588 1723.94 199.953 1723.94 199.465C1723.94 198.684 1724.42 196.926 1725.4 194.191C1727.55 187.844 1732.82 174.465 1741.22 154.055L1744.59 146.145L1763.34 96.4863ZM1855.48 172.951C1860.36 172.951 1864.37 176.711 1867.49 184.23C1869.05 187.941 1870.57 190.383 1872.03 191.555C1873.4 192.824 1875.21 193.459 1877.45 193.459C1881.65 193.459 1885.65 191.506 1889.46 187.6C1892.39 184.67 1893.86 180.178 1893.86 174.123C1893.86 169.436 1892.2 162.404 1888.88 153.029C1884.19 139.455 1881.85 128.811 1881.85 121.096C1881.85 109.865 1884.87 99.9043 1890.93 91.2129C1896.98 82.5215 1906.55 78.1758 1919.64 78.1758C1925.21 78.1758 1929.65 79.6895 1932.97 82.7168C1936.29 85.7441 1937.95 89.4062 1937.95 93.7031C1937.95 96.6328 1937.12 99.0254 1935.46 100.881C1933.9 102.639 1932.09 103.518 1930.04 103.518C1925.74 103.518 1921.88 101.467 1918.47 97.3652C1915.05 93.166 1912.75 90.7246 1911.58 90.041C1910.41 89.4551 1908.6 89.1621 1906.16 89.1621C1903.43 89.1621 1900.99 90.334 1898.84 92.6777C1896.79 95.0215 1895.76 97.8535 1895.76 101.174C1895.76 109.084 1898.11 120.119 1902.79 134.279C1907.48 148.342 1909.82 159.279 1909.82 167.092C1909.82 172.072 1908.26 177.15 1905.14 182.326C1902.11 187.404 1897.32 191.75 1890.78 195.363C1884.34 198.879 1877.7 200.637 1870.86 200.637C1862.66 200.637 1856.5 198.879 1852.4 195.363C1848.4 191.848 1846.4 187.648 1846.4 182.766C1846.4 179.836 1847.23 177.492 1848.89 175.734C1850.55 173.879 1852.74 172.951 1855.48 172.951Z" fill="#262C31" fill-opacity="0.47"/>
</svg>
