<svg width="1182" height="261" viewBox="0 0 1182 261" fill="none" xmlns="http://www.w3.org/2000/svg">
<path d="M31.5625 79.334C28.3398 81.6777 25.3125 84.4121 22.4805 87.5371C21.6992 88.416 17.2559 94.2754 9.15039 105.115L3.14453 105.408C5.58594 100.135 10.127 93.6406 16.7676 85.9258C23.4082 78.2109 29.1699 72.9375 34.0527 70.1055C37.1777 68.25 40.6934 67.1758 44.5996 66.8828C47.041 67.5664 48.7012 68.4941 49.5801 69.666C50.5566 70.8379 51.0449 72.2539 51.0449 73.9141C51.0449 75.5742 50.8496 77.2344 50.459 78.8945C49.3848 84.2656 47.2363 91.9316 44.0137 101.893C40.791 111.854 37.9102 119.715 35.3711 125.477L27.7539 143.494L27.168 146.131C28.5352 143.787 31.3184 138.562 35.5176 130.457C51.4355 100.281 62.9102 81.6289 69.9414 74.5C75.1172 69.4219 81.1719 66.8828 88.1055 66.8828C92.0117 66.8828 95.6738 68.4453 99.0918 71.5703C101.631 74.0117 102.9 77.2344 102.9 81.2383C102.9 85.7305 101.484 89.5879 98.6523 92.8105C96.6992 95.0566 93.916 96.1797 90.3027 96.1797C87.2754 96.1797 85.127 95.4961 83.8574 94.1289C82.6855 92.6641 81.9531 89.0996 81.6602 83.4355C80.3906 80.8965 78.9746 79.627 77.4121 79.627C75.8496 79.627 74.1895 80.457 72.4316 82.1172C67.7441 86.3164 58.9062 99.793 45.918 122.547C32.9297 145.203 24.7754 160.975 21.4551 169.861C18.2324 178.65 15.5957 184.705 13.5449 188.025C12.4707 189.686 10.4688 190.516 7.53906 190.516C4.90234 190.516 2.99805 190.027 1.82617 189.051C0.751953 188.172 0.214844 187 0.214844 185.535C0.214844 183.582 0.703125 181.336 1.67969 178.797C5.87891 168.543 12.6172 149.646 21.8945 122.107L32.1484 90.7598C32.832 87.9277 33.3203 86.1211 33.6133 85.3398L34.4922 83.1426C34.4922 82.166 33.5156 80.8965 31.5625 79.334ZM117.402 134.119C114.18 143.006 112.568 151.99 112.568 161.072C112.568 167.713 114.131 173.035 117.256 177.039C119.307 179.773 122.09 181.141 125.605 181.141C127.754 181.141 129.658 180.701 131.318 179.822C134.932 177.967 138.008 175.77 140.547 173.23C143.184 170.691 145.918 167.371 148.75 163.27C151.582 159.168 153.877 154.578 155.635 149.5H157.686C158.857 149.5 160.176 149.598 161.641 149.793C158.711 160.73 151.484 171.473 139.961 182.02C132.734 188.562 125.264 191.834 117.549 191.834C112.373 191.834 107.979 189.49 104.365 184.803C99.5801 178.65 97.1875 170.154 97.1875 159.314C97.1875 154.627 97.8711 149.012 99.2383 142.469C100.703 135.926 102.363 130.457 104.219 126.062C107.148 119.227 110.42 112.781 114.033 106.727L125.312 90.3203C132.637 82.5078 136.738 78.2109 137.617 77.4297C141.035 74.5 144.453 72.3027 147.871 70.8379C151.387 69.2754 155 68.4941 158.711 68.4941C163.496 68.4941 167.695 70.4961 171.309 74.5C174.922 78.5039 176.729 83.5332 176.729 89.5879C176.729 94.959 175.312 100.281 172.48 105.555C169.746 110.73 166.768 114.539 163.545 116.98L151.387 124.891C150.02 125.574 146.357 126.844 140.4 128.699C134.443 130.457 126.777 132.264 117.402 134.119ZM119.893 126.795C123.018 126.893 127.9 125.672 134.541 123.133C138.154 121.766 142.939 119.08 148.896 115.076C151.24 113.514 153.926 110.877 156.953 107.166C159.98 103.357 162.275 99.4512 163.838 95.4473C165.4 91.3457 166.182 87.1465 166.182 82.8496C166.182 80.0176 165.352 77.6738 163.691 75.8184C162.031 73.9629 160.176 73.0352 158.125 73.0352C155.488 73.0352 152.363 74.5488 148.75 77.5762C142.695 82.8496 136.348 91.6875 129.707 104.09C124.727 113.562 121.455 121.131 119.893 126.795ZM233.564 16.4922C233.564 13.4648 234.785 10.8281 237.227 8.58203C239.668 6.23828 242.793 5.06641 246.602 5.06641C248.75 5.06641 250.654 6.04297 252.314 7.99609C254.072 9.85156 254.951 12.2441 254.951 15.1738C254.951 18.2988 253.975 20.8379 252.021 22.791C250.068 24.7441 247.285 25.7207 243.672 25.7207C240.645 25.7207 238.203 24.793 236.348 22.9375C234.492 21.082 233.564 18.9336 233.564 16.4922ZM109.785 239.441C112.031 238.758 113.643 238.416 114.619 238.416C116.279 238.416 118.037 239.197 119.893 240.76C121.65 242.42 123.066 244.812 124.141 247.938C125.117 251.16 126.484 253.211 128.242 254.09C131.953 254.09 135.371 253.65 138.496 252.771C141.914 251.404 145.039 249.5 147.871 247.059C150.605 244.617 154.121 240.223 158.418 233.875C161.738 228.992 165.889 221.18 170.869 210.438C175.85 199.793 179.658 191.102 182.295 184.363C183.662 180.555 185.029 177.039 186.396 173.816L205.879 126.502L212.764 109.949C214.131 106.922 216.035 102.82 218.477 97.6445C221.016 92.4688 222.285 87.9277 222.285 84.0215C222.285 83.0449 221.992 82.2637 221.406 81.6777C220.82 80.9941 220.186 80.6523 219.502 80.6523C218.135 80.6523 215.547 81.9707 211.738 84.6074C206.465 88.3184 199.775 95.2031 191.67 105.262C190.303 104.578 189.033 103.602 187.861 102.332C192.158 96.1797 197.676 89.7832 204.414 83.1426C211.25 76.502 218.135 71.5215 225.068 68.2012C229.365 66.1504 233.76 65.125 238.252 65.125C239.717 66.3945 240.449 67.7129 240.449 69.0801C240.449 78.9434 233.809 98.7188 220.527 128.406C219.16 131.531 217.793 134.949 216.426 138.66C212.324 149.891 206.367 164.246 198.555 181.727C187.227 207.215 179.365 223.377 174.971 230.213C170.576 237.146 165.498 243.006 159.736 247.791C153.877 252.674 148.555 255.848 143.77 257.312C136.738 259.559 130.488 260.682 125.02 260.682C120.137 260.682 116.621 260.193 114.473 259.217C111.055 257.752 108.32 255.701 106.27 253.064C105.098 251.6 104.512 249.695 104.512 247.352C104.512 244.129 106.27 241.492 109.785 239.441ZM290.107 79.7734C286.885 81.1406 282.344 84.9004 276.484 91.0527C272.676 94.2754 269.111 97.6445 265.791 101.16C263.545 103.699 261.885 105.457 260.811 106.434L256.123 105.408C257.686 102.479 262.227 97.0098 269.746 89.002C277.266 80.8965 284.932 74.5977 292.744 70.1055C296.553 67.8594 300.02 66.7363 303.145 66.7363C305 66.7363 306.611 67.4199 307.979 68.7871C309.346 70.1543 310.029 71.6191 310.029 73.1816C310.029 75.2324 309.199 78.0156 307.539 81.5312C307.246 82.1172 306.514 83.7773 305.342 86.5117C300.947 96.7656 292.451 114.197 279.854 138.807C268.916 159.9 263.447 171.863 263.447 174.695L263.594 175.574C266.133 175.184 269.551 173.133 273.848 169.422C286.641 158.582 296.309 149.5 302.852 142.176C303.73 141.297 305.977 138.953 309.59 135.145C320.723 123.621 329.951 112.537 337.275 101.893C341.67 95.5449 347.92 84.0215 356.025 67.3223C358.76 67.0293 361.055 66.8828 362.91 66.8828C365.156 66.8828 366.865 67.6641 368.037 69.2266C365.986 75.3789 362.129 85.4375 356.465 99.4023L329.219 167.371C327.559 170.887 326.484 174.109 325.996 177.039L327.021 177.186C327.705 177.186 329.316 176.062 331.855 173.816C337.52 168.738 342.256 163.562 346.064 158.289C347.822 155.848 349.336 153.943 350.605 152.576L355.293 153.309C350.605 162.195 342.695 171.863 331.562 182.312C325.41 187.977 320.576 190.809 317.061 190.809C315.791 190.809 314.131 190.516 312.08 189.93C310.322 188.074 309.443 186.316 309.443 184.656C309.443 179.773 311.445 172.645 315.449 163.27L336.104 115.076C336.689 114.1 337.08 113.123 337.275 112.146C335.518 114.1 331.66 118.494 325.703 125.33C311.641 141.736 299.531 154.627 289.375 164.002C279.316 173.377 268.477 181.434 256.855 188.172C254.023 189.734 251.24 190.516 248.506 190.516C247.139 190.516 245.967 190.027 244.99 189.051C244.111 188.074 243.672 186.707 243.672 184.949C243.672 183.387 244.014 181.434 244.697 179.09C246.26 174.109 249.043 167.762 253.047 160.047L278.096 110.682L288.35 88.8555C290.205 85.9258 291.133 83.7773 291.133 82.4102C291.133 81.9219 290.791 81.043 290.107 79.7734ZM385.908 108.631L381.221 108.924H379.902C385.566 93.7871 393.184 81.4824 402.754 72.0098C407.344 67.4199 411.836 65.125 416.23 65.125C418.867 65.125 421.26 66.2969 423.408 68.6406C425.557 70.8867 426.631 74.0117 426.631 78.0156C426.631 82.3125 426.143 86.707 425.166 91.1992C424.189 95.5938 421.846 102.625 418.135 112.293L404.951 145.838C401.045 155.018 398.75 160.633 398.066 162.684L396.016 168.543C393.867 173.914 392.793 177.576 392.793 179.529C392.793 180.115 393.135 181.385 393.818 183.338C394.893 183.826 395.674 184.07 396.162 184.07L405.684 179.529C417.402 170.447 424.824 164.197 427.949 160.779C434.004 154.529 440.889 146.082 448.604 135.438C452.314 130.359 455.244 124.598 457.393 118.152C458.857 113.758 459.59 109.412 459.59 105.115C459.59 100.037 458.467 91.5898 456.221 79.7734C456.221 75.1836 457.393 71.375 459.736 68.3477C461.494 66.0039 463.35 64.832 465.303 64.832C467.354 64.832 469.355 66.1016 471.309 68.6406C473.359 71.1797 474.385 74.8418 474.385 79.627C474.385 92.127 470.869 105.799 463.838 120.643C458.955 131.092 451.045 142.811 440.107 155.799C429.17 168.787 417.695 178.895 405.684 186.121C399.824 189.734 393.672 191.541 387.227 191.541C385.273 191.541 382.93 191.004 380.195 189.93C377.656 187.781 376.387 185.535 376.387 183.191C376.387 179.188 377.559 174.305 379.902 168.543C390.547 142.566 399.922 118.25 408.027 95.5938C409.492 91.2969 410.225 87.7324 410.225 84.9004C410.225 83.1426 409.785 81.6777 408.906 80.5059C408.223 79.627 407.441 79.1875 406.562 79.1875C404.414 79.1875 402.021 80.8965 399.385 84.3145C394.502 90.6621 390.01 98.7676 385.908 108.631ZM499.141 134.119C495.918 143.006 494.307 151.99 494.307 161.072C494.307 167.713 495.869 173.035 498.994 177.039C501.045 179.773 503.828 181.141 507.344 181.141C509.492 181.141 511.396 180.701 513.057 179.822C516.67 177.967 519.746 175.77 522.285 173.23C524.922 170.691 527.656 167.371 530.488 163.27C533.32 159.168 535.615 154.578 537.373 149.5H539.424C540.596 149.5 541.914 149.598 543.379 149.793C540.449 160.73 533.223 171.473 521.699 182.02C514.473 188.562 507.002 191.834 499.287 191.834C494.111 191.834 489.717 189.49 486.104 184.803C481.318 178.65 478.926 170.154 478.926 159.314C478.926 154.627 479.609 149.012 480.977 142.469C482.441 135.926 484.102 130.457 485.957 126.062C488.887 119.227 492.158 112.781 495.771 106.727L507.051 90.3203C514.375 82.5078 518.477 78.2109 519.355 77.4297C522.773 74.5 526.191 72.3027 529.609 70.8379C533.125 69.2754 536.738 68.4941 540.449 68.4941C545.234 68.4941 549.434 70.4961 553.047 74.5C556.66 78.5039 558.467 83.5332 558.467 89.5879C558.467 94.959 557.051 100.281 554.219 105.555C551.484 110.73 548.506 114.539 545.283 116.98L533.125 124.891C531.758 125.574 528.096 126.844 522.139 128.699C516.182 130.457 508.516 132.264 499.141 134.119ZM501.631 126.795C504.756 126.893 509.639 125.672 516.279 123.133C519.893 121.766 524.678 119.08 530.635 115.076C532.979 113.514 535.664 110.877 538.691 107.166C541.719 103.357 544.014 99.4512 545.576 95.4473C547.139 91.3457 547.92 87.1465 547.92 82.8496C547.92 80.0176 547.09 77.6738 545.43 75.8184C543.77 73.9629 541.914 73.0352 539.863 73.0352C537.227 73.0352 534.102 74.5488 530.488 77.5762C524.434 82.8496 518.086 91.6875 511.445 104.09C506.465 113.562 503.193 121.131 501.631 126.795ZM604.316 85.4863C604.121 84.7051 603.828 84.168 603.438 83.875C603.145 83.582 602.754 83.4355 602.266 83.4355C597.188 83.4355 589.277 91.4434 578.535 107.459C577.461 107.557 576.68 107.605 576.191 107.605C575.605 107.605 574.629 107.557 573.262 107.459C575.312 103.357 578.633 98.1816 583.223 91.9316C587.91 85.6816 592.842 80.5059 598.018 76.4043C603.291 72.2051 608.271 69.0801 612.959 67.0293C614.521 66.3457 615.938 66.0039 617.207 66.0039C617.695 66.0039 618.428 66.0527 619.404 66.1504C621.162 67.9082 622.041 69.7148 622.041 71.5703C622.041 72.7422 621.895 73.9141 621.602 75.0859C621.406 76.2578 620.918 78.0645 620.137 80.5059C617.207 88.9043 615.059 94.8125 613.691 98.2305L605.342 119.91C603.389 124.891 601.484 130.164 599.629 135.73C600.41 134.754 601.094 133.826 601.68 132.947C610.762 119.666 620.527 106.971 630.977 94.8613C641.523 82.6543 650.215 74.5 657.051 70.3984C661.934 67.3711 666.572 65.8574 670.967 65.8574C674.287 65.8574 676.875 66.7852 678.73 68.6406C680.586 70.3984 681.514 72.6934 681.514 75.5254C681.514 77.2832 681.318 78.9922 680.928 80.6523C680.244 84.3633 678.73 89.5391 676.387 96.1797C674.043 102.82 667.891 117.225 657.93 139.393L643.281 173.23L642.695 175.135C642.695 175.721 643.037 176.6 643.721 177.771C649.189 176.6 657.393 167.908 668.33 151.697L674.336 151.844C671.309 157.312 666.328 164.344 659.395 172.938C654.023 179.48 648.262 184.559 642.109 188.172C638.691 190.223 635.029 191.248 631.123 191.248C628.779 191.248 627.021 190.76 625.85 189.783C624.678 188.807 624.092 187.732 624.092 186.561C624.092 181.385 626.582 173.377 631.562 162.537L652.803 116.102L661.006 96.6191C662.861 92.3223 663.984 89.3438 664.375 87.6836C664.766 86.0234 664.961 84.3633 664.961 82.7031C664.961 81.4336 664.619 80.457 663.936 79.7734C663.252 78.9922 662.373 78.6016 661.299 78.6016C659.736 78.6016 657.93 79.2363 655.879 80.5059C648.652 84.8027 640.693 92.1758 632.002 102.625C619.502 117.664 611.201 128.455 607.1 134.998C596.846 151.209 587.91 167.762 580.293 184.656C579.121 187.391 577.705 189.393 576.045 190.662C573.994 190.955 572.432 191.102 571.357 191.102C570.088 191.102 568.135 190.857 565.498 190.369C565.107 189.588 564.912 188.953 564.912 188.465C564.912 187.684 565.4 185.926 566.377 183.191C568.525 176.844 573.799 163.465 582.197 143.055L585.566 135.145L604.316 85.4863ZM790.791 80.9453C791.768 79.2852 792.402 77.9668 792.695 76.9902C793.867 74.0605 795.039 72.1562 796.211 71.2773C798.945 70.9844 800.947 70.8379 802.217 70.8379C803.877 70.8379 805.488 71.1797 807.051 71.8633L807.49 73.6211C807.49 74.207 807.246 75.0859 806.758 76.2578C806.465 76.8438 805.83 78.6992 804.854 81.8242L803.682 84.7539L794.014 110.975C789.912 122.791 786.299 132.215 783.174 139.246C780.146 146.277 777.51 153.455 775.264 160.779C773.018 168.006 770.967 173.182 769.111 176.307L768.525 177.771C768.525 178.357 769.062 179.139 770.137 180.115C774.531 177.674 778.242 175.037 781.27 172.205C789.082 164.881 793.721 160.34 795.186 158.582C796.26 157.312 797.285 156.141 798.262 155.066C799.434 156.043 800.508 157.068 801.484 158.143C798.75 161.951 794.16 167.127 787.715 173.67C781.27 180.213 775.459 184.852 770.283 187.586C766.279 189.637 762.52 190.662 759.004 190.662C756.758 190.662 755.049 190.174 753.877 189.197C752.803 188.221 752.266 186.951 752.266 185.389C752.266 184.021 752.754 181.482 753.73 177.771C756.172 171.326 757.881 167.078 758.857 165.027C759.834 162.977 761.152 159.803 762.812 155.506C763.789 152.869 765.791 148.279 768.818 141.736C766.963 143.592 764.668 146.326 761.934 149.939C754.023 159.9 744.941 169.324 734.688 178.211C732.344 180.262 726.68 183.533 717.695 188.025C714.375 189.295 710.469 190.125 705.977 190.516C702.168 190.418 699.629 190.027 698.359 189.344C696.016 188.074 694.111 186.072 692.646 183.338C691.572 181.287 691.035 178.113 691.035 173.816C691.035 167.566 692.402 160.633 695.137 153.016C699.824 140.027 704.561 130.408 709.346 124.158C717.549 113.318 725.654 104.725 733.662 98.377C741.768 92.0293 749.189 87.3906 755.928 84.4609C764.814 80.5547 772.529 78.6016 779.072 78.6016C781.221 78.6016 783.271 78.7969 785.225 79.1875C787.178 79.5781 789.033 80.1641 790.791 80.9453ZM721.064 177.039C723.408 176.453 725.459 175.623 727.217 174.549C728.291 173.963 732.1 171.277 738.643 166.492C750.557 154.48 757.295 147.596 758.857 145.838C762.275 142.029 766.133 136.805 770.43 130.164C771.602 128.504 774.092 123.914 777.9 116.395L781.709 106.287C783.076 100.33 783.76 96.9121 783.76 96.0332C783.76 93.2988 782.637 90.7109 780.391 88.2695C778.926 86.8047 776.533 86.0723 773.213 86.0723C769.404 86.0723 766.133 86.707 763.398 87.9766C757.246 90.9062 751.631 94.6172 746.553 99.1094C739.717 105.262 733.125 113.172 726.777 122.84C720.43 132.41 715.938 140.418 713.301 146.863C709.688 155.75 707.881 162.391 707.881 166.785C707.881 170.398 708.613 173.084 710.078 174.842C711.543 176.6 713.398 177.479 715.645 177.479C716.426 177.479 718.232 177.332 721.064 177.039ZM855.537 80.5059H847.041L842.939 80.3594L833.418 80.6523H831.514C831.709 78.5039 832.539 76.0137 834.004 73.1816C848.066 72.791 856.416 72.4492 859.053 72.1562C861.006 67.4688 862.666 63.709 864.033 60.877C866.963 54.5293 869.99 47.0098 873.115 38.3184C874.092 35.4863 875.166 32.8984 876.338 30.5547C878.486 30.2617 880.977 30.1152 883.809 30.1152C886.152 30.1152 888.398 30.3594 890.547 30.8477L890.84 33.1914C890.84 35.0469 886.445 45.7891 877.656 65.418C876.68 67.6641 875.85 69.959 875.166 72.3027C877.998 72.791 879.658 73.0352 880.146 73.0352H883.223L888.203 73.1816L902.266 72.8887C902.266 76.1113 901.68 78.748 900.508 80.7988C896.602 81.1895 891.475 81.3848 885.127 81.3848C882.002 81.3848 880 81.4336 879.121 81.5312C874.141 82.0195 871.26 82.5078 870.479 82.9961L846.162 139.832C843.623 145.398 839.131 155.994 832.686 171.619C832.686 172.205 832.979 172.889 833.564 173.67L835.469 173.963C838.105 173.963 841.377 172.303 845.283 168.982C853.975 161.658 862.178 153.113 869.893 143.348C871.553 144.227 873.018 145.252 874.287 146.424C864.424 158.24 857.49 166.053 853.486 169.861C849.482 173.572 844.404 177.479 838.252 181.58C832.1 185.584 828.389 187.83 827.119 188.318C824.873 189.197 822.578 189.637 820.234 189.637C817.793 189.637 815.986 189.1 814.814 188.025C813.643 187.049 813.057 185.584 813.057 183.631C813.057 180.799 815.449 174.207 820.234 163.855L826.533 150.232L848.652 98.2305C851.484 91.4922 853.779 85.584 855.537 80.5059ZM938.74 13.709C938.74 10.291 940.059 7.26367 942.695 4.62695C945.332 1.89258 948.408 0.525391 951.924 0.525391C955.244 0.525391 958.076 1.69727 960.42 4.04102C962.764 6.38477 963.936 9.07031 963.936 12.0977C963.936 16.0039 962.471 19.5684 959.541 22.791C957.783 24.6465 954.561 25.5742 949.873 25.5742C946.748 25.5742 944.111 24.5 941.963 22.3516C939.814 20.2031 938.74 17.3223 938.74 13.709ZM933.027 79.4805C930.977 79.4805 929.463 79.627 928.486 79.9199C923.896 82.3613 920.527 84.4609 918.379 86.2188C913.984 89.6367 909.834 93.6406 905.928 98.2305L897.432 100.135C904.951 89.9785 913.301 82.0195 922.48 76.2578C931.66 70.4961 938.887 67.6152 944.16 67.6152C946.406 67.6152 948.066 68.2012 949.141 69.373C950.312 70.4473 950.898 71.8633 950.898 73.6211C950.898 78.4062 948.164 86.3652 942.695 97.498C942.012 98.8652 940.4 102.381 937.861 108.045C932.002 120.838 925.752 132.947 919.111 144.373C916.963 148.084 914.619 152.479 912.08 157.557C910.713 160.291 909.492 162.586 908.418 164.441C905.391 169.52 903.877 173.279 903.877 175.721C903.877 176.404 904.121 177.039 904.609 177.625C905.195 178.113 905.879 178.357 906.66 178.357C907.734 178.357 909.297 177.771 911.348 176.6C914.766 174.646 918.818 171.424 923.506 166.932C928.291 162.342 932.49 157.117 936.104 151.258H942.109C939.277 156.531 935.078 162.586 929.512 169.422C924.043 176.258 917.793 181.727 910.762 185.828C905.488 188.953 900.801 190.516 896.699 190.516C893.574 190.516 891.279 189.832 889.814 188.465C888.35 187.195 887.617 185.486 887.617 183.338C887.617 175.818 893.135 161.658 904.17 140.857L927.754 96.3262C930.195 91.7363 931.904 88.123 932.881 85.4863C933.467 83.8262 933.76 82.7031 933.76 82.1172C933.76 81.6289 933.516 80.75 933.027 79.4805ZM1051.83 103.797C1051.83 126.453 1044.94 146.57 1031.17 164.148C1017.5 181.727 1003.29 190.516 988.545 190.516C980.635 190.516 974.238 187.586 969.355 181.727C964.473 175.77 962.031 166.492 962.031 153.895C962.031 145.398 963.936 135.633 967.744 124.598C971.553 113.465 976.484 104.236 982.539 96.9121C983.906 95.252 985.469 93.25 987.227 90.9062C992.402 84.168 998.555 78.5039 1005.68 73.9141C1012.81 69.3242 1020.09 67.0293 1027.51 67.0293C1034.35 67.0293 1040.11 69.9102 1044.79 75.6719C1049.48 81.3359 1051.83 90.7109 1051.83 103.797ZM975.654 170.447C975.654 174.939 976.68 178.26 978.73 180.408C980.879 182.557 984.297 183.631 988.984 183.631C993.574 183.631 998.213 181.385 1002.9 176.893C1011.3 168.689 1019.7 154.578 1028.1 134.559C1036.49 114.539 1040.69 98.7676 1040.69 87.2441C1040.69 83.1426 1039.67 79.9199 1037.62 77.5762C1035.57 75.1348 1033.22 73.9141 1030.59 73.9141C1024.82 73.9141 1018.82 77.2832 1012.57 84.0215C1001.92 95.3496 992.744 110.975 985.029 130.896C978.779 147.107 975.654 160.291 975.654 170.447ZM1104.71 85.4863C1104.51 84.7051 1104.22 84.168 1103.83 83.875C1103.54 83.582 1103.14 83.4355 1102.66 83.4355C1097.58 83.4355 1089.67 91.4434 1078.93 107.459C1077.85 107.557 1077.07 107.605 1076.58 107.605C1076 107.605 1075.02 107.557 1073.65 107.459C1075.7 103.357 1079.02 98.1816 1083.61 91.9316C1088.3 85.6816 1093.23 80.5059 1098.41 76.4043C1103.68 72.2051 1108.66 69.0801 1113.35 67.0293C1114.91 66.3457 1116.33 66.0039 1117.6 66.0039C1118.09 66.0039 1118.82 66.0527 1119.79 66.1504C1121.55 67.9082 1122.43 69.7148 1122.43 71.5703C1122.43 72.7422 1122.29 73.9141 1121.99 75.0859C1121.8 76.2578 1121.31 78.0645 1120.53 80.5059C1117.6 88.9043 1115.45 94.8125 1114.08 98.2305L1105.73 119.91C1103.78 124.891 1101.88 130.164 1100.02 135.73C1100.8 134.754 1101.48 133.826 1102.07 132.947C1111.15 119.666 1120.92 106.971 1131.37 94.8613C1141.91 82.6543 1150.61 74.5 1157.44 70.3984C1162.32 67.3711 1166.96 65.8574 1171.36 65.8574C1174.68 65.8574 1177.27 66.7852 1179.12 68.6406C1180.98 70.3984 1181.9 72.6934 1181.9 75.5254C1181.9 77.2832 1181.71 78.9922 1181.32 80.6523C1180.63 84.3633 1179.12 89.5391 1176.78 96.1797C1174.43 102.82 1168.28 117.225 1158.32 139.393L1143.67 173.23L1143.09 175.135C1143.09 175.721 1143.43 176.6 1144.11 177.771C1149.58 176.6 1157.78 167.908 1168.72 151.697L1174.73 151.844C1171.7 157.312 1166.72 164.344 1159.79 172.938C1154.41 179.48 1148.65 184.559 1142.5 188.172C1139.08 190.223 1135.42 191.248 1131.51 191.248C1129.17 191.248 1127.41 190.76 1126.24 189.783C1125.07 188.807 1124.48 187.732 1124.48 186.561C1124.48 181.385 1126.97 173.377 1131.95 162.537L1153.19 116.102L1161.4 96.6191C1163.25 92.3223 1164.38 89.3438 1164.77 87.6836C1165.16 86.0234 1165.35 84.3633 1165.35 82.7031C1165.35 81.4336 1165.01 80.457 1164.33 79.7734C1163.64 78.9922 1162.76 78.6016 1161.69 78.6016C1160.13 78.6016 1158.32 79.2363 1156.27 80.5059C1149.04 84.8027 1141.08 92.1758 1132.39 102.625C1119.89 117.664 1111.59 128.455 1107.49 134.998C1097.24 151.209 1088.3 167.762 1080.68 184.656C1079.51 187.391 1078.1 189.393 1076.44 190.662C1074.38 190.955 1072.82 191.102 1071.75 191.102C1070.48 191.102 1068.53 190.857 1065.89 190.369C1065.5 189.588 1065.3 188.953 1065.3 188.465C1065.3 187.684 1065.79 185.926 1066.77 183.191C1068.92 176.844 1074.19 163.465 1082.59 143.055L1085.96 135.145L1104.71 85.4863Z" fill="#262C31" fill-opacity="0.47"/>
</svg>
